PathFileType	4	(X/Y/Z)	 New Session 102.trc
DataRate	CameraRate	NumFrames	NumMarkers	Units	OrigDataRate	OrigDataStartFrame	OrigNumFrames
100	100	29	14	m	100	76	302
Frame#	Time	C7			T8			IJ			PX			AA			AC			AI			TS			SC			GH			LE			ME			US			RS			
		X1	Y1	Z1	X2	Y2	Z2	X3	Y3	Z3	X4	Y4	Z4	X5	Y5	Z5	X6	Y6	Z6	X7	Y7	Z7	X8	Y8	Z8	X9	Y9	Z9	X10	Y10	Z10	X11	Y11	Z11	X12	Y12	Z12	X13	Y13	Z13	X14	Y14	Z14	
76	0.7600	0.023932	0.104240	0.159189	0.029035	-0.110695	0.231461	-0.000970	0.000001	-0.003078	0.000162	-0.142709	-0.069697	0.222046	0.007857	0.136510	0.168930	0.049457	0.067721	0.107809	0.027602	0.197661	0.111214	-0.090889	0.228281	0.024194	0.008263	0.000935	0.231518	0.020859	0.096104	0.318584	-0.248114	0.006795	0.245483	-0.299666	0.042929	0.396612	-0.491279	-0.097124	0.323368	-0.499928	-0.132094	
77	0.7700	0.023927	0.104247	0.159118	0.029030	-0.110691	0.231405	-0.000969	0.000018	-0.003135	0.000160	-0.142676	-0.069783	0.222045	0.007869	0.136429	0.168919	0.049480	0.067632	0.107804	0.027605	0.197595	0.111204	-0.090883	0.228223	0.024184	0.008260	0.000854	0.231516	0.020872	0.096037	0.318592	-0.248095	0.006725	0.245511	-0.299653	0.042860	0.396590	-0.491276	-0.097198	0.323353	-0.499923	-0.132153	
78	0.7800	0.023927	0.104239	0.159037	0.029034	-0.110694	0.231346	-0.000968	0.000038	-0.003191	0.000160	-0.142651	-0.069877	0.222052	0.007880	0.136345	0.168898	0.049497	0.067536	0.107804	0.027607	0.197519	0.111201	-0.090878	0.228164	0.024162	0.008274	0.000761	0.231512	0.020887	0.095965	0.318578	-0.248077	0.006661	0.245525	-0.299645	0.042782	0.396575	-0.491273	-0.097266	0.323345	-0.499916	-0.132217	
79	0.7900	0.023929	0.104223	0.158953	0.029045	-0.110702	0.231281	-0.000968	0.000059	-0.003247	0.000164	-0.142643	-0.069976	0.222065	0.007893	0.136258	0.168873	0.049505	0.067441	0.107812	0.027610	0.197435	0.111204	-0.090875	0.228103	0.024119	0.008302	0.000668	0.231516	0.020904	0.095893	0.318559	-0.248061	0.006599	0.245526	-0.299636	0.042698	0.396571	-0.491264	-0.097331	0.323343	-0.499906	-0.132284	
80	0.8000	0.023930	0.104213	0.158879	0.029058	-0.110707	0.231214	-0.000967	0.000081	-0.003303	0.000174	-0.142649	-0.070068	0.222079	0.007910	0.136168	0.168859	0.049512	0.067351	0.107826	0.027613	0.197351	0.111213	-0.090871	0.228041	0.024060	0.008337	0.000584	0.231528	0.020925	0.095821	0.318564	-0.248045	0.006527	0.245520	-0.299621	0.042615	0.396583	-0.491247	-0.097397	0.323349	-0.499892	-0.132353	
81	0.8100	0.023925	0.104221	0.158822	0.029072	-0.110704	0.231151	-0.000966	0.000104	-0.003358	0.000186	-0.142655	-0.070146	0.222089	0.007934	0.136077	0.168856	0.049525	0.067265	0.107843	0.027621	0.197275	0.111226	-0.090868	0.227976	0.024011	0.008363	0.000510	0.231541	0.020952	0.095745	0.318607	-0.248023	0.006439	0.245517	-0.299599	0.042537	0.396610	-0.491217	-0.097470	0.323361	-0.499874	-0.132424	
82	0.8200	0.023918	0.104247	0.158774	0.029083	-0.110687	0.231094	-0.000965	0.000127	-0.003414	0.000191	-0.142652	-0.070214	0.222092	0.007967	0.135988	0.168861	0.049550	0.067182	0.107857	0.027636	0.197211	0.111242	-0.090864	0.227910	0.024000	0.008374	0.000441	0.231544	0.020986	0.095664	0.318670	-0.247992	0.006337	0.245519	-0.299567	0.042461	0.396647	-0.491174	-0.097549	0.323379	-0.499853	-0.132496	
83	0.8300	0.023910	0.104279	0.158722	0.029096	-0.110656	0.231038	-0.000963	0.000150	-0.003471	0.000192	-0.142643	-0.070283	0.222090	0.008005	0.135905	0.168865	0.049586	0.067107	0.107865	0.027661	0.197154	0.111261	-0.090858	0.227843	0.024012	0.008376	0.000376	0.231536	0.021024	0.095579	0.318721	-0.247951	0.006230	0.245523	-0.299526	0.042383	0.396688	-0.491123	-0.097635	0.323403	-0.499828	-0.132572	
84	0.8400	0.023901	0.104310	0.158665	0.029113	-0.110619	0.230983	-0.000960	0.000173	-0.003528	0.000192	-0.142627	-0.070359	0.222088	0.008046	0.135830	0.168866	0.049630	0.067035	0.107868	0.027693	0.197095	0.111282	-0.090850	0.227775	0.024022	0.008380	0.000312	0.231521	0.021059	0.095493	0.318741	-0.247905	0.006129	0.245529	-0.299485	0.042298	0.396729	-0.491072	-0.097726	0.323432	-0.499799	-0.132653	
85	0.8500	0.023889	0.104332	0.158603	0.029135	-0.110587	0.230930	-0.000956	0.000196	-0.003585	0.000192	-0.142602	-0.070436	0.222087	0.008083	0.135759	0.168863	0.049672	0.066959	0.107867	0.027723	0.197033	0.111306	-0.090840	0.227705	0.024018	0.008391	0.000244	0.231507	0.021087	0.095400	0.318739	-0.247863	0.006036	0.245540	-0.299451	0.042209	0.396770	-0.491030	-0.097818	0.323468	-0.499765	-0.132736	
86	0.8600	0.023880	0.104341	0.158542	0.029158	-0.110570	0.230878	-0.000951	0.000217	-0.003643	0.000188	-0.142579	-0.070506	0.222089	0.008111	0.135687	0.168857	0.049700	0.066875	0.107867	0.027739	0.196971	0.111332	-0.090827	0.227635	0.024006	0.008404	0.000170	0.231499	0.021102	0.095303	0.318726	-0.247829	0.005952	0.245558	-0.299430	0.042121	0.396810	-0.491000	-0.097911	0.323511	-0.499728	-0.132818	
87	0.8700	0.023875	0.104337	0.158480	0.029183	-0.110569	0.230825	-0.000944	0.000238	-0.003702	0.000178	-0.142566	-0.070570	0.222097	0.008132	0.135615	0.168852	0.049706	0.066790	0.107873	0.027737	0.196907	0.111363	-0.090813	0.227565	0.024001	0.008412	0.000096	0.231496	0.021104	0.095210	0.318706	-0.247806	0.005880	0.245584	-0.299421	0.042037	0.396854	-0.490979	-0.098001	0.323563	-0.499686	-0.132889	
88	0.8800	0.023877	0.104325	0.158418	0.029206	-0.110579	0.230768	-0.000935	0.000257	-0.003760	0.000164	-0.142556	-0.070632	0.222109	0.008151	0.135547	0.168850	0.049702	0.066712	0.107888	0.027725	0.196842	0.111397	-0.090798	0.227495	0.024009	0.008414	0.000026	0.231502	0.021098	0.095132	0.318679	-0.247789	0.005817	0.245616	-0.299420	0.041958	0.396905	-0.490956	-0.098090	0.323629	-0.499639	-0.132942	
89	0.8900	0.023883	0.104316	0.158357	0.029222	-0.110590	0.230709	-0.000924	0.000276	-0.003819	0.000155	-0.142533	-0.070699	0.222127	0.008183	0.135488	0.168851	0.049703	0.066643	0.107906	0.027718	0.196781	0.111433	-0.090781	0.227426	0.024027	0.008418	-0.000039	0.231511	0.021104	0.095069	0.318652	-0.247769	0.005759	0.245647	-0.299417	0.041881	0.396963	-0.490920	-0.098181	0.323713	-0.499585	-0.132969	
90	0.9000	0.023888	0.104322	0.158299	0.029227	-0.110595	0.230650	-0.000912	0.000293	-0.003878	0.000153	-0.142496	-0.070775	0.222150	0.008236	0.135440	0.168853	0.049722	0.066582	0.107918	0.027729	0.196730	0.111470	-0.090764	0.227359	0.024041	0.008430	-0.000100	0.231521	0.021135	0.095009	0.318646	-0.247737	0.005694	0.245678	-0.299405	0.041803	0.397026	-0.490865	-0.098277	0.323818	-0.499525	-0.132968	
91	0.9100	0.023891	0.104346	0.158245	0.029220	-0.110593	0.230593	-0.000897	0.000309	-0.003936	0.000156	-0.142457	-0.070855	0.222173	0.008302	0.135394	0.168853	0.049758	0.066525	0.107919	0.027760	0.196685	0.111508	-0.090748	0.227292	0.024043	0.008453	-0.000154	0.231527	0.021187	0.094942	0.318681	-0.247693	0.005615	0.245715	-0.299378	0.041723	0.397089	-0.490796	-0.098380	0.323941	-0.499457	-0.132950	
92	0.9200	0.023895	0.104379	0.158194	0.029209	-0.110581	0.230540	-0.000881	0.000325	-0.003994	0.000163	-0.142427	-0.070930	0.222183	0.008361	0.135337	0.168852	0.049801	0.066466	0.107914	0.027802	0.196641	0.111546	-0.090733	0.227228	0.024034	0.008480	-0.000202	0.231532	0.021242	0.094863	0.318763	-0.247639	0.005519	0.245762	-0.299333	0.041643	0.397151	-0.490724	-0.098485	0.324074	-0.499384	-0.132932	
93	0.9300	0.023901	0.104409	0.158148	0.029209	-0.110559	0.230497	-0.000864	0.000339	-0.004050	0.000171	-0.142417	-0.070996	0.222180	0.008394	0.135266	0.168853	0.049838	0.066402	0.107917	0.027839	0.196593	0.111583	-0.090720	0.227165	0.024026	0.008495	-0.000243	0.231541	0.021281	0.094780	0.318877	-0.247587	0.005414	0.245821	-0.299272	0.041564	0.397210	-0.490660	-0.098587	0.324207	-0.499307	-0.132941	
94	0.9400	0.023911	0.104424	0.158107	0.029229	-0.110536	0.230466	-0.000845	0.000352	-0.004105	0.000177	-0.142425	-0.071058	0.222176	0.008403	0.135191	0.168853	0.049857	0.066339	0.107928	0.027861	0.196543	0.111620	-0.090710	0.227104	0.024033	0.008489	-0.000283	0.231560	0.021299	0.094701	0.318990	-0.247542	0.005310	0.245885	-0.299208	0.041486	0.397263	-0.490614	-0.098682	0.324328	-0.499227	-0.132995	
95	0.9500	0.023920	0.104422	0.158073	0.029263	-0.110522	0.230442	-0.000826	0.000365	-0.004159	0.000178	-0.142434	-0.071119	0.222186	0.008401	0.135132	0.168852	0.049855	0.066285	0.107944	0.027864	0.196496	0.111657	-0.090703	0.227043	0.024053	0.008469	-0.000322	0.231585	0.021301	0.094635	0.319081	-0.247506	0.005213	0.245945	-0.299153	0.041407	0.397307	-0.490583	-0.098766	0.324427	-0.499146	-0.133103	
96	0.9600	0.023924	0.104409	0.158046	0.029298	-0.110524	0.230416	-0.000807	0.000377	-0.004211	0.000170	-0.142429	-0.071177	0.222209	0.008405	0.135100	0.168850	0.049844	0.066242	0.107959	0.027855	0.196458	0.111694	-0.090699	0.226984	0.024079	0.008459	-0.000361	0.231608	0.021301	0.094587	0.319143	-0.247475	0.005124	0.245993	-0.299111	0.041326	0.397341	-0.490558	-0.098839	0.324504	-0.499065	-0.133268	
97	0.9700	0.023923	0.104395	0.158025	0.029327	-0.110539	0.230387	-0.000787	0.000387	-0.004262	0.000159	-0.142401	-0.071229	0.222230	0.008420	0.135085	0.168848	0.049845	0.066209	0.107974	0.027841	0.196430	0.111732	-0.090699	0.226925	0.024096	0.008476	-0.000400	0.231623	0.021311	0.094552	0.319184	-0.247445	0.005038	0.246029	-0.299082	0.041246	0.397371	-0.490528	-0.098902	0.324560	-0.498984	-0.133481	
98	0.9800	0.023922	0.104386	0.158007	0.029353	-0.110559	0.230361	-0.000769	0.000396	-0.004310	0.000150	-0.142356	-0.071275	0.222236	0.008439	0.135074	0.168844	0.049865	0.066177	0.107986	0.027829	0.196413	0.111772	-0.090701	0.226865	0.024099	0.008512	-0.000434	0.231629	0.021336	0.094520	0.319210	-0.247412	0.004952	0.246059	-0.299059	0.041170	0.397402	-0.490489	-0.098964	0.324601	-0.498903	-0.133725	
99	0.9900	0.023925	0.104386	0.157990	0.029379	-0.110578	0.230336	-0.000751	0.000405	-0.004356	0.000145	-0.142310	-0.071318	0.222229	0.008459	0.135053	0.168842	0.049897	0.066141	0.107996	0.027819	0.196400	0.111813	-0.090705	0.226804	0.024089	0.008552	-0.000460	0.231631	0.021373	0.094487	0.319226	-0.247377	0.004862	0.246089	-0.299033	0.041097	0.397441	-0.490440	-0.099030	0.324634	-0.498824	-0.133977	
100	1.0000	0.023936	0.104392	0.157973	0.029401	-0.110594	0.230302	-0.000734	0.000411	-0.004399	0.000146	-0.142279	-0.071359	0.222221	0.008478	0.135020	0.168847	0.049927	0.066100	0.108006	0.027812	0.196382	0.111857	-0.090711	0.226741	0.024080	0.008577	-0.000484	0.231635	0.021413	0.094453	0.319241	-0.247340	0.004769	0.246125	-0.298999	0.041026	0.397492	-0.490387	-0.099103	0.324665	-0.498751	-0.134211	
101	1.0100	0.023951	0.104397	0.157956	0.029412	-0.110603	0.230256	-0.000718	0.000416	-0.004440	0.000152	-0.142269	-0.071398	0.222221	0.008495	0.134981	0.168856	0.049951	0.066060	0.108021	0.027808	0.196352	0.111902	-0.090718	0.226678	0.024084	0.008584	-0.000513	0.231644	0.021449	0.094419	0.319265	-0.247301	0.004678	0.246168	-0.298957	0.040956	0.397553	-0.490334	-0.099181	0.324698	-0.498685	-0.134410	
102	1.0200	0.023968	0.104399	0.157937	0.029421	-0.110600	0.230211	-0.000703	0.000420	-0.004478	0.000160	-0.142271	-0.071435	0.222235	0.008516	0.134940	0.168864	0.049969	0.066028	0.108041	0.027813	0.196315	0.111948	-0.090724	0.226613	0.024105	0.008580	-0.000547	0.231660	0.021476	0.094385	0.319312	-0.247254	0.004600	0.246218	-0.298910	0.040885	0.397622	-0.490282	-0.099262	0.324732	-0.498628	-0.134567	
103	1.0300	0.023981	0.104400	0.157917	0.029441	-0.110585	0.230183	-0.000690	0.000422	-0.004513	0.000168	-0.142270	-0.071476	0.222259	0.008548	0.134900	0.168869	0.049988	0.066002	0.108062	0.027827	0.196281	0.111994	-0.090731	0.226550	0.024135	0.008583	-0.000579	0.231676	0.021498	0.094346	0.319390	-0.247199	0.004543	0.246273	-0.298862	0.040817	0.397693	-0.490231	-0.099344	0.324764	-0.498581	-0.134683	
104	1.0400	0.023986	0.104402	0.157895	0.029478	-0.110566	0.230172	-0.000678	0.000423	-0.004546	0.000172	-0.142255	-0.071523	0.222289	0.008591	0.134863	0.168873	0.050014	0.065974	0.108080	0.027849	0.196251	0.112040	-0.090736	0.226489	0.024157	0.008602	-0.000601	0.231682	0.021521	0.094299	0.319496	-0.247133	0.004506	0.246326	-0.298816	0.040754	0.397756	-0.490181	-0.099427	0.324788	-0.498546	-0.134765	
